<svg width="550" height="600" viewBox="0 0 317 470" fill="none" xmlns="http://www.w3.org/2000/svg">
<path d="M146.615 260.281C142.465 267.651 139.355 274.141 138.615 278.041C135.925 292.421 145.805 293.771 150.295 289.281C154.785 284.791 148.495 266.811 145.725 257.531C142.995 248.431 129.665 217.671 109.305 213.941C88.945 210.211 76.895 209.341 70.015 201.611C63.135 193.881 50.5351 169.171 33.5951 168.061C24.3451 167.451 16.3151 173.781 21.6551 179.671C27.0051 185.561 38.525 193.601 41.305 199.901C43.765 205.491 37.925 210.201 33.585 199.611C29.835 190.461 27.115 166.091 27.115 166.091C27.115 166.091 25.985 147.691 25.965 143.391C25.915 131.131 27.3351 123.751 22.1251 118.211C17.2651 113.061 9.84504 112.571 6.76504 123.431C2.15504 139.681 0.305044 164.081 3.86504 176.561C7.42504 189.041 32.385 233.021 41.295 244.901" stroke="#BC977D" stroke-width="3" stroke-linecap="round" stroke-linejoin="round"/>
<path d="M170.094 260.311C174.234 267.681 177.344 274.151 178.074 278.051C180.764 292.431 170.884 293.781 166.384 289.291C161.894 284.801 168.184 266.821 170.954 257.541C173.674 248.441 187.014 217.681 207.374 213.951C227.744 210.221 239.784 209.361 246.664 201.621C253.544 193.891 266.144 169.181 283.084 168.071C292.334 167.461 300.364 173.801 295.024 179.681C289.674 185.571 278.154 193.611 275.374 199.911C272.914 205.501 278.754 210.211 283.094 199.621C286.844 190.471 289.564 166.101 289.564 166.101C289.564 166.101 290.694 147.701 290.714 143.401C290.764 131.141 289.344 123.761 294.554 118.221C299.414 113.071 306.834 112.581 309.914 123.441C314.524 139.691 316.384 164.091 312.814 176.571C309.254 189.051 285.564 234.101 275.374 244.911C266.224 254.631 249.584 257.851 240.454 263.221C231.334 268.591 209.334 291.731 205.924 311.931C200.834 342.101 203.104 353.611 208.504 377.841" stroke="#BC977D" stroke-width="3" stroke-linecap="round" stroke-linejoin="round"/>
<path d="M231.884 469.791C231.794 469.791 231.704 469.791 231.614 469.771C230.804 469.621 230.254 468.841 230.404 468.031C231.094 464.241 231.454 460.311 231.464 456.361C231.464 455.531 232.134 454.871 232.964 454.871C233.794 454.871 234.464 455.551 234.454 456.381C234.434 460.511 234.064 464.621 233.344 468.581C233.214 469.301 232.584 469.811 231.874 469.811L231.884 469.791ZM232.064 445.891C231.334 445.891 230.694 445.361 230.584 444.611C230.024 440.911 229.184 437.031 228.074 433.071C227.854 432.271 228.314 431.451 229.114 431.221C229.904 431.001 230.734 431.461 230.964 432.261C232.104 436.341 232.974 440.341 233.554 444.161C233.674 444.981 233.114 445.741 232.294 445.871C232.214 445.881 232.144 445.891 232.064 445.891ZM225.754 422.781C225.144 422.781 224.574 422.411 224.354 421.811C223.094 418.461 221.654 414.951 219.824 410.781C219.494 410.021 219.834 409.141 220.594 408.801C221.354 408.471 222.234 408.811 222.574 409.571C224.424 413.791 225.884 417.341 227.164 420.751C227.454 421.521 227.064 422.391 226.284 422.681C226.114 422.751 225.934 422.781 225.754 422.781ZM216.274 400.731C215.704 400.731 215.154 400.401 214.904 399.851C213.254 396.191 211.544 392.311 210.174 388.721C209.884 387.951 210.274 387.081 211.044 386.791C211.824 386.501 212.684 386.891 212.974 387.661C214.304 391.171 215.994 395.011 217.634 398.621C217.974 399.381 217.634 400.261 216.884 400.601C216.684 400.691 216.474 400.731 216.264 400.731H216.274Z" fill="#BC977D"/>
<path d="M170.095 260.311C166.005 251.751 54.9445 116.201 60.3345 49.5112C61.9445 29.5512 73.1345 11.6712 90.3645 5.20117C125.115 -7.83883 149.635 21.9712 158.615 40.5212M158.615 40.5212C171.895 67.9412 169.795 89.2212 158.615 89.2212C147.435 89.2212 143.465 67.1012 158.615 40.5212ZM158.615 40.5212C168.825 22.6112 192.115 -7.84883 226.865 5.20117C244.095 11.6712 255.275 29.5512 256.895 49.5112C262.285 116.201 150.705 251.731 146.615 260.291" stroke="#BC977D" stroke-width="3" stroke-linecap="round" stroke-linejoin="round"/>
</svg>
