<svg width="159" height="56" viewBox="0 0 159 56" fill="none" xmlns="http://www.w3.org/2000/svg">
<path d="M31.593 56C31.5161 56 31.4341 56 31.3521 55.9949L30.7472 55.9641L29.9475 54.9799L30.0705 54.3391C30.1166 54.093 30.5319 51.6683 29.0914 49.5922C28.0046 48.0236 26.0925 47.0035 23.4064 46.5523C14.2048 44.8351 5.18263 47.1009 2.63489 47.8339C2.00949 48.0184 1.3482 47.8954 0.825324 47.5007C0.302448 47.106 0 46.5011 0 45.8449V4.4967C0 3.35354 0.738178 2.36931 1.83519 2.05148C6.17712 0.790427 21.1355 -2.74155 33.3769 4.01996C45.6286 -2.74155 60.5716 0.790427 64.9084 2.05148C65.9901 2.36931 66.7436 3.37405 66.7436 4.4967V45.6911C66.7436 46.3422 66.436 46.9624 65.9132 47.3469C65.3903 47.7365 64.7239 47.8544 64.0933 47.6699C61.5559 46.9163 52.5644 44.5993 43.3885 46.3217C40.7638 46.9471 39.0824 48.1979 38.2417 50.1561C36.6423 53.8829 34.2279 56 31.5827 56H31.593ZM16.2092 43.251C18.6544 43.251 21.2431 43.4407 23.8678 43.9328C27.2613 44.5019 29.7578 45.8962 31.27 48.0748C32.4696 49.8024 32.7823 51.6581 32.8079 53.0114C34.3817 52.1604 35.4582 49.9203 35.8016 49.1103C36.9858 46.3575 39.3387 44.548 42.8092 43.7278L42.8656 43.7124C51.7289 42.0464 60.1923 43.8252 64.078 44.9017V4.57359C59.8334 3.34842 45.5312 0.0214905 34.1818 6.60871C33.6845 6.9009 33.0591 6.9009 32.5516 6.60871C21.2124 0.0214905 6.90504 3.35354 2.65539 4.57872V45.0709C5.3928 44.3327 10.396 43.2562 16.204 43.2562L16.2092 43.251ZM32.8592 4.31215C32.8592 4.31215 32.8541 4.31215 32.8489 4.31728C32.8489 4.31728 32.8541 4.31728 32.8592 4.31215Z" fill="black"/>
<path d="M88.2071 46.84C88.976 46.5786 89.4989 45.8968 89.4989 45.0561C89.4989 43.6413 88.4378 42.9287 86.3668 42.9287H83.9011C83.696 42.9287 83.5269 43.0979 83.5269 43.3029V50.7667C83.5269 50.9718 83.696 51.1409 83.9011 51.1409H86.6487C88.935 51.1409 89.7809 50.0234 89.7809 48.7829C89.7809 47.7474 89.2067 47.1066 88.2071 46.8452V46.84ZM85.0135 44.1129H86.2694C87.674 44.1129 88.0226 44.4922 88.0226 45.1381C88.0226 45.8148 87.5612 46.2813 86.4642 46.2813H85.0186V44.1129H85.0135ZM86.5616 49.9465H85.0135V47.4706H86.3822C87.6842 47.4706 88.2994 47.8396 88.2994 48.706C88.2994 49.4903 87.7509 49.9414 86.5616 49.9414V49.9465Z" fill="black"/>
<path d="M95.8197 47.5782C96.8398 47.2348 97.4139 46.5068 97.4139 45.3791C97.4139 43.7489 96.199 42.9287 94.169 42.9287H91.5393C91.3342 42.9287 91.165 43.0979 91.165 43.3029V50.7667C91.165 50.9718 91.3342 51.1409 91.5393 51.1409H92.2774C92.4825 51.1409 92.6517 50.9718 92.6517 50.7667V47.8089H94.3638L95.9632 50.9359C96.0247 51.0589 96.1529 51.1409 96.2964 51.1409H97.296C97.4806 51.1409 97.5985 50.9461 97.5113 50.7821L95.8248 47.5833L95.8197 47.5782ZM94.0665 46.6145H92.6465V44.1282H94.0665C95.3224 44.1282 95.9324 44.4512 95.9324 45.3791C95.9324 46.3069 95.3173 46.6145 94.0665 46.6145Z" fill="black"/>
<path d="M103.109 43.1638C103.053 43.0203 102.914 42.9229 102.761 42.9229H101.869C101.715 42.9229 101.571 43.0203 101.52 43.1638L98.6647 50.8019C98.6032 50.9608 98.7211 51.1351 98.8954 51.1351H99.9257C100.049 51.1351 100.156 51.0582 100.197 50.9454L100.731 49.4332H103.914L104.447 50.9454C104.488 51.0582 104.596 51.1351 104.719 51.1351H105.734C105.903 51.1351 106.026 50.9659 105.964 50.8019L103.109 43.1638ZM101.141 48.2439L102.315 44.9221L103.488 48.2439H101.136H101.141Z" fill="black"/>
<path d="M113.259 42.9229H112.572C112.367 42.9229 112.198 43.092 112.198 43.2971V48.5771L108.676 43.0971C108.61 42.9895 108.492 42.928 108.364 42.928H107.661C107.456 42.928 107.287 43.0971 107.287 43.3022V50.766C107.287 50.971 107.456 51.1402 107.661 51.1402H108.348C108.553 51.1402 108.722 50.971 108.722 50.766V45.5577L112.203 50.9659C112.27 51.0736 112.388 51.1351 112.516 51.1351H113.254C113.459 51.1351 113.628 50.9659 113.628 50.7609V43.2971C113.628 43.092 113.459 42.9229 113.254 42.9229H113.259Z" fill="black"/>
<path d="M118.488 42.9229H115.884C115.679 42.9229 115.51 43.092 115.51 43.2971V50.7609C115.51 50.9659 115.679 51.1351 115.884 51.1351H118.488C120.472 51.1351 121.799 50.1457 121.799 47.516V46.542C121.799 43.9122 120.472 42.9229 118.488 42.9229ZM120.318 47.516C120.318 49.2076 119.754 49.9458 118.488 49.9458H116.991V44.1275H118.488C119.754 44.1275 120.318 44.8503 120.318 46.542V47.516Z" fill="black"/>
<path d="M132.606 46.84C133.374 46.5786 133.897 45.8968 133.897 45.0561C133.897 43.6413 132.836 42.9287 130.765 42.9287H128.3C128.094 42.9287 127.925 43.0979 127.925 43.3029V50.7667C127.925 50.9718 128.094 51.1409 128.3 51.1409H131.047C133.333 51.1409 134.179 50.0234 134.179 48.7829C134.179 47.7474 133.605 47.1066 132.606 46.8452V46.84ZM129.412 44.1129H130.663C132.067 44.1129 132.416 44.4922 132.416 45.1381C132.416 45.8148 131.955 46.2813 130.858 46.2813H129.412V44.1129ZM130.96 49.9465H129.412V47.4706H130.781C132.083 47.4706 132.698 47.8396 132.698 48.706C132.698 49.4903 132.149 49.9414 130.96 49.9414V49.9465Z" fill="black"/>
<path d="M138.757 42.8154C136.789 42.8154 135.461 43.9227 135.461 46.5063V47.5521C135.461 50.1357 136.789 51.243 138.757 51.243C140.726 51.243 142.069 50.1357 142.069 47.5521V46.5063C142.069 43.9227 140.741 42.8154 138.757 42.8154ZM140.587 47.5521C140.587 49.3257 139.936 50.0383 138.757 50.0383C137.578 50.0383 136.942 49.3257 136.942 47.5521V46.5063C136.942 44.7326 137.583 44.0201 138.757 44.0201C139.931 44.0201 140.587 44.7326 140.587 46.5063V47.5521Z" fill="black"/>
<path d="M146.79 42.8154C144.821 42.8154 143.494 43.9227 143.494 46.5063V47.5521C143.494 50.1357 144.821 51.243 146.79 51.243C148.758 51.243 150.101 50.1357 150.101 47.5521V46.5063C150.101 43.9227 148.774 42.8154 146.79 42.8154ZM148.62 47.5521C148.62 49.3257 147.969 50.0383 146.79 50.0383C145.611 50.0383 144.975 49.3257 144.975 47.5521V46.5063C144.975 44.7326 145.616 44.0201 146.79 44.0201C147.964 44.0201 148.62 44.7326 148.62 46.5063V47.5521Z" fill="black"/>
<path d="M158.611 50.7513L155.515 46.2351L157.96 43.3337C158.093 43.1748 157.98 42.9287 157.77 42.9287H156.658C156.545 42.9287 156.442 42.98 156.371 43.0671L153.233 46.8913V43.3029C153.233 43.0979 153.064 42.9287 152.859 42.9287H152.121C151.916 42.9287 151.747 43.0979 151.747 43.3029V50.7667C151.747 50.9718 151.916 51.1409 152.121 51.1409H152.859C153.064 51.1409 153.233 50.9718 153.233 50.7667V48.952L154.536 47.3937L156.981 50.982C157.052 51.0846 157.165 51.1461 157.288 51.1461H158.401C158.601 51.1461 158.713 50.9256 158.606 50.7616L158.611 50.7513Z" fill="black"/>
<path d="M87.0898 22.9612H83.9167C83.7116 22.9612 83.5425 23.1303 83.5425 23.3354V32.9984C83.5425 33.2034 83.7116 33.3726 83.9167 33.3726H84.9214C85.1265 33.3726 85.2957 33.2034 85.2957 32.9984V29.5689H87.0898C89.5043 29.5689 90.9243 28.3591 90.9243 26.2471C90.9243 24.1351 89.4889 22.9561 87.0898 22.9561V22.9612ZM86.9104 28.0618H85.2957V24.4837H86.9104C88.5098 24.4837 89.1762 25.1193 89.1762 26.2471C89.1762 27.4364 88.5149 28.0567 86.9104 28.0567V28.0618Z" fill="black"/>
<path d="M99.039 24.4895C99.244 24.4895 99.4132 24.3204 99.4132 24.1153V23.3361C99.4132 23.1311 99.244 22.9619 99.039 22.9619H93.4001C93.195 22.9619 93.0259 23.1311 93.0259 23.3361V33.0042C93.0259 33.2093 93.195 33.3784 93.4001 33.3784H99.039C99.244 33.3784 99.4132 33.2093 99.4132 33.0042V32.2404C99.4132 32.0354 99.244 31.8662 99.039 31.8662H94.7791V28.7443H98.5878C98.7929 28.7443 98.9621 28.5751 98.9621 28.3701V27.6063C98.9621 27.4012 98.7929 27.2321 98.5878 27.2321H94.7791V24.4844H99.039V24.4895Z" fill="black"/>
<path d="M102.494 22.9619C102.289 22.9619 102.12 23.1311 102.12 23.3361V32.9991C102.12 33.2041 102.289 33.3733 102.494 33.3733H103.499C103.704 33.3733 103.873 33.2041 103.873 32.9991V29.1493H105.893L107.805 33.1734C107.861 33.2964 107.984 33.3733 108.122 33.3733H109.46C109.635 33.3733 109.742 33.1939 109.671 33.0401L107.615 28.8622C108.82 28.4265 109.501 27.5038 109.501 26.0684C109.501 24.0025 108.066 22.9619 105.667 22.9619H102.494ZM107.748 26.0735C107.748 27.2474 107.025 27.6422 105.544 27.6422H103.868V24.4895H105.544C107.02 24.4895 107.748 24.8945 107.748 26.0735Z" fill="black"/>
<path d="M115.638 31.9838C114.602 31.9838 113.997 31.6865 113.449 31.1226C113.3 30.9688 113.064 30.9483 112.89 31.0714L112.229 31.5276C112.008 31.6814 111.977 31.9941 112.157 32.1889C112.998 33.0808 114.156 33.5063 115.725 33.5063C118.231 33.5063 119.272 32.071 119.272 30.5177C119.272 28.6466 118.185 27.8623 116.089 27.4112C114.643 27.0934 113.854 26.7038 113.854 25.7042C113.854 24.8276 114.489 24.3457 115.561 24.3457C116.555 24.3457 117.104 24.6482 117.565 25.1659C117.714 25.3351 117.965 25.3659 118.149 25.2377L118.78 24.7866C118.985 24.6379 119.026 24.3406 118.862 24.1458C118.119 23.259 117.042 22.8232 115.581 22.8232C113.136 22.8232 112.111 24.1356 112.111 25.7042C112.111 27.4676 113.244 28.4365 115.248 28.8568C117.057 29.2464 117.524 29.7642 117.524 30.5895C117.524 31.343 117.073 31.9787 115.638 31.9787V31.9838Z" fill="black"/>
<path d="M129.166 28.83V27.5023C129.166 24.2266 127.597 22.8271 125.26 22.8271C122.922 22.8271 121.364 24.2317 121.364 27.5023V28.83C121.364 32.1056 122.932 33.5102 125.26 33.5102C127.587 33.5102 129.166 32.1056 129.166 28.83ZM127.413 28.83C127.413 31.0804 126.644 31.9826 125.255 31.9826C123.865 31.9826 123.112 31.0753 123.112 28.83V27.5023C123.112 25.257 123.865 24.3496 125.255 24.3496C126.644 24.3496 127.413 25.257 127.413 27.5023V28.83Z" fill="black"/>
<path d="M132.16 33.3726H133.103C133.308 33.3726 133.477 33.2034 133.477 32.9984V26.2932L137.609 33.188C137.675 33.3008 137.798 33.3674 137.927 33.3674H138.896C139.101 33.3674 139.27 33.1983 139.27 32.9932V23.3303C139.27 23.1252 139.101 22.9561 138.896 22.9561H137.952C137.747 22.9561 137.578 23.1252 137.578 23.3303V30.1225L133.4 23.1355C133.334 23.0227 133.21 22.9561 133.082 22.9561H132.16C131.955 22.9561 131.785 23.1252 131.785 23.3303V32.9932C131.785 33.1983 131.955 33.3674 132.16 33.3674V33.3726Z" fill="black"/>
<path d="M147.533 31.2152L148.153 33.0965C148.21 33.2605 148.358 33.3733 148.533 33.3733H149.717C149.901 33.3733 150.035 33.1888 149.973 33.0145L146.564 23.2131C146.513 23.0644 146.369 22.9619 146.211 22.9619H145.083C144.924 22.9619 144.78 23.0644 144.729 23.2131L141.32 33.0145C141.259 33.1888 141.392 33.3733 141.576 33.3733H142.776C142.95 33.3733 143.104 33.2605 143.155 33.0965L143.776 31.2152H147.533ZM145.647 25.4994L147.036 29.708H144.257L145.647 25.4994Z" fill="black"/>
<path d="M152.408 33.3726H158.047C158.252 33.3726 158.421 33.2034 158.421 32.9984V32.2345C158.421 32.0295 158.252 31.8603 158.047 31.8603H153.787V23.3303C153.787 23.1252 153.618 22.9561 153.413 22.9561H152.408C152.203 22.9561 152.034 23.1252 152.034 23.3303V32.9932C152.034 33.1983 152.203 33.3674 152.408 33.3674V33.3726Z" fill="black"/>
<path d="M90.8111 5.42423C91.2263 5.81896 91.4365 6.33158 91.4365 6.95185C91.4365 7.46448 91.2878 7.93609 91.0008 8.34106C90.7086 8.75116 90.2933 9.09462 89.7653 9.35606C89.2322 9.62262 88.6068 9.8328 87.9096 9.99171C87.2125 10.1455 86.4281 10.248 85.5823 10.289C85.4439 10.289 85.3363 10.3505 85.2645 10.4633C85.1927 10.5812 85.1825 10.6991 85.2337 10.817L85.6387 11.7295C85.6951 11.873 85.7925 11.9909 85.9258 12.073C86.0334 12.1396 86.1565 12.1755 86.2897 12.1755H86.3461C88.5504 12.0012 90.3036 11.4527 91.5595 10.5453C92.8257 9.63288 93.4665 8.43334 93.4665 6.98261C93.4665 6.17779 93.2717 5.47037 92.8821 4.87573C92.4925 4.28108 91.9696 3.82485 91.3186 3.53265C90.6727 3.24046 89.9345 3.0918 89.1194 3.0918C88.7555 3.0918 88.3505 3.12255 87.9148 3.18407C87.4944 3.24046 87.033 3.33273 86.5461 3.45063C86.0488 3.57366 85.6592 3.67619 85.3619 3.75821C85.08 3.84023 84.716 3.94788 84.2187 4.10679C83.7676 4.25033 82.3835 4.70144 82.1529 4.79371C81.9273 4.88598 81.876 5.02951 81.9683 5.27557C82.0196 5.41398 82.3733 6.28032 82.3733 6.28032C82.4246 6.41873 82.5168 6.52125 82.6552 6.57764C82.7937 6.63403 82.9269 6.6289 83.0551 6.56739C85.7054 5.41911 87.72 4.83984 89.0528 4.83984C89.8063 4.83984 90.3959 5.03977 90.8111 5.43449V5.42423Z" fill="black"/>
<path d="M97.7316 6.25566C97.2651 6.78878 97.0293 7.46032 97.0293 8.26002C97.0293 9.05971 97.2292 9.67998 97.6239 10.0901C98.0187 10.5002 98.5005 10.7052 99.0542 10.7052H99.1926V10.9103C99.1926 11.141 99.2028 11.3255 99.2233 11.4742C99.249 11.628 99.3207 11.8022 99.4438 12.0022C99.5719 12.2021 99.7462 12.361 99.9769 12.4687C100.197 12.5763 100.525 12.6686 100.946 12.7506C101.366 12.8275 101.879 12.8685 102.473 12.8685C102.976 12.8685 103.514 12.8429 104.078 12.7967C104.647 12.7506 105.083 12.6788 105.365 12.5917C106.098 12.361 106.61 12.0534 106.887 11.6792C107.164 11.305 107.323 10.7821 107.369 10.1208C107.384 9.91066 107.395 9.63385 107.395 9.26476V9.02382C107.384 8.87004 107.338 8.73675 107.251 8.61372C107.164 8.49582 107.041 8.40868 106.887 8.35741L105.949 8.07034C105.821 8.02933 105.703 8.04984 105.605 8.13699C105.503 8.21901 105.462 8.33178 105.467 8.47019C105.493 8.79827 105.508 9.18786 105.508 9.62872C105.508 9.97218 105.436 10.249 105.293 10.4489C105.149 10.654 104.919 10.8078 104.606 10.9052C104.057 11.0589 103.381 11.1358 102.591 11.1358C102.094 11.1358 101.715 11.1 101.469 11.0333C101.171 10.9513 100.946 10.4233 100.966 10.126C101.084 8.47019 101.223 7.40906 101.269 6.52735C101.315 5.56361 101.269 4.59476 101.269 4.59476C101.93 4.52299 102.55 4.43072 103.114 4.31794C103.263 4.28718 103.386 4.21541 103.483 4.09751C103.581 3.97961 103.627 3.8412 103.627 3.68741V3.01075C103.627 2.87747 103.57 2.76469 103.458 2.67754C103.345 2.5904 103.217 2.56477 103.089 2.59552C102.525 2.72881 101.92 2.84671 101.269 2.94411C101.279 2.52888 101.299 2.15467 101.335 1.83171C101.346 1.6933 101.305 1.57028 101.212 1.46262C101.12 1.35497 101.002 1.30371 100.859 1.30371H99.9307C99.7872 1.30371 99.6744 1.3601 99.5822 1.46775C99.5001 1.5754 99.4591 1.6933 99.4694 1.82659C99.5104 2.11366 99.536 2.52376 99.536 3.04151V3.07739H99.2131C98.762 3.07739 98.1981 3.03125 97.5368 2.94923C97.4086 2.93898 97.2856 2.97999 97.1831 3.07226C97.0754 3.16454 97.0242 3.28244 97.0344 3.4311L97.0754 4.07188C97.0857 4.21541 97.1421 4.34357 97.2446 4.45635C97.3471 4.564 97.4753 4.62551 97.6239 4.63577C98.2955 4.69728 98.8747 4.72804 99.3412 4.72804H99.5463V5.46622C98.8184 5.46622 98.2083 5.73791 97.7418 6.27103L97.7316 6.25566ZM99.8333 7.10149C99.9359 7.23989 99.9871 7.42444 99.9871 7.66024C99.9871 8.05497 99.9205 8.37792 99.7872 8.62398C99.6591 8.85978 99.4745 8.97256 99.2233 8.97256C99.0439 8.97256 98.8901 8.90079 98.762 8.75213C98.6287 8.60347 98.562 8.40355 98.562 8.13699C98.562 7.77302 98.6492 7.47057 98.8235 7.23989C98.9926 7.01434 99.1926 6.90156 99.4335 6.90156C99.6027 6.90156 99.736 6.96308 99.8333 7.09636V7.10149Z" fill="black"/>
<path d="M107.016 6.04055C107.113 6.13794 107.236 6.19433 107.38 6.20459H107.405C107.538 6.20459 107.651 6.15332 107.743 6.05592L108.302 5.49716C108.41 5.38951 108.466 5.25623 108.466 5.09732C108.466 4.95891 108.415 4.83588 108.318 4.7231C107.605 3.96955 106.893 3.31851 106.195 2.79564C106.088 2.71874 105.97 2.67773 105.842 2.67773H105.78C105.637 2.69824 105.503 2.75975 105.391 2.86741L104.934 3.32364C104.842 3.41591 104.796 3.52356 104.796 3.64659C104.796 3.80551 104.857 3.93879 104.975 4.04131C105.662 4.6052 106.344 5.27674 107.021 6.04567L107.016 6.04055Z" fill="black"/>
<path d="M112.101 8.45335C114.249 10.2885 115.576 11.4727 116.048 11.9699C116.125 12.0571 116.263 12.2006 116.453 12.3954C116.643 12.5902 116.786 12.7389 116.883 12.8414C116.981 12.9491 117.109 13.0106 117.263 13.0208H117.288C117.417 13.0208 117.535 12.9747 117.637 12.8824L118.483 12.0878C118.596 11.9904 118.647 11.8674 118.647 11.7239C118.647 11.5804 118.596 11.4624 118.493 11.3599C118.083 10.9857 117.586 10.55 117.001 10.0579C116.463 9.60162 115.858 9.09925 115.156 8.51486L114.823 8.23804C114.372 7.86896 114.09 7.63315 113.977 7.54088C113.731 7.3307 113.577 7.16666 113.516 7.04876C113.459 6.94623 113.459 6.85396 113.51 6.75656C113.567 6.64891 113.715 6.48487 113.962 6.2747C114.305 5.9825 114.951 5.45962 115.93 4.67018C116.965 3.83973 117.401 3.49115 117.427 3.47577C117.504 3.42451 117.627 3.33223 117.822 3.17845C118.001 3.03491 118.139 2.92726 118.237 2.86062C118.35 2.7786 118.411 2.6607 118.416 2.52229C118.421 2.37875 118.37 2.26085 118.268 2.16858L117.396 1.41502C117.304 1.333 117.196 1.29199 117.078 1.29199H117.022C116.883 1.30224 116.76 1.36376 116.663 1.47141C116.504 1.66108 116.263 1.90714 115.951 2.20959C115.294 2.84524 114.038 3.92175 112.208 5.40323C111.752 5.78258 111.439 6.12603 111.281 6.42848C111.188 6.60277 111.142 6.78732 111.142 6.97186C111.142 7.11027 111.168 7.25381 111.224 7.40247C111.357 7.72542 111.655 8.07401 112.106 8.44822L112.101 8.45335Z" fill="black"/>
<path d="M118.452 4.64106C118.616 4.91275 118.847 5.30747 119.129 5.82522C119.195 5.95337 119.303 6.04564 119.447 6.09178C119.518 6.11741 119.585 6.12766 119.652 6.12766C119.718 6.12766 119.79 6.11228 119.857 6.08665L120.087 5.98413C120.221 5.93287 120.313 5.83547 120.359 5.69706C120.38 5.6458 120.39 5.58941 120.39 5.52789C120.39 5.45613 120.369 5.38436 120.328 5.29721C120.051 4.79484 119.826 4.40012 119.662 4.11818C119.585 3.99002 119.472 3.908 119.324 3.86187C119.18 3.82086 119.036 3.82598 118.903 3.88237L118.652 3.97464C118.524 4.02591 118.442 4.1233 118.401 4.26171C118.36 4.395 118.375 4.52315 118.447 4.63593L118.452 4.64106Z" fill="black"/>
<path d="M117.499 6.47597C117.56 6.60413 117.663 6.6964 117.806 6.74766C117.878 6.77329 117.945 6.78355 118.011 6.78355C118.078 6.78355 118.144 6.76817 118.211 6.74766L118.462 6.64001C118.59 6.5785 118.683 6.4811 118.734 6.34782C118.785 6.20941 118.775 6.07612 118.703 5.94797C118.437 5.44047 118.221 5.056 118.047 4.76893C117.97 4.64078 117.857 4.55363 117.709 4.5075C117.565 4.46136 117.422 4.46136 117.278 4.52287L117.073 4.61515C116.94 4.66641 116.848 4.75868 116.807 4.89196C116.76 5.02525 116.771 5.1534 116.842 5.27643C117.012 5.55325 117.227 5.95822 117.493 6.48622L117.499 6.47597Z" fill="black"/>
</svg>
