<svg width="534" height="322" viewBox="0 0 534 322" fill="none" xmlns="http://www.w3.org/2000/svg">
<path d="M36.6697 3.84133H28.8647V7.65633H36.6697V3.84133ZM28.8647 12.4863H36.6697V8.67133H28.8647V12.4863ZM28.8647 17.5263H36.6697V13.5363H28.8647V17.5263ZM28.8647 18.5063V19.9413C28.8647 20.2563 27.7447 20.8863 26.6247 20.8863H26.1697V1.56633L29.0397 2.82633H36.3197L37.7897 1.18133L40.9397 3.63133C40.6947 3.87633 40.1697 4.19133 39.4347 4.33133V19.7313C39.3997 19.9763 37.9997 20.6063 37.0897 20.6063H36.6697V18.5063H28.8647ZM22.3547 21.1663L22.7047 20.8863C31.2797 22.0413 29.8097 28.0963 26.9047 26.5213C26.3097 24.5963 24.1747 22.3563 22.3547 21.1663ZM14.7947 22.8813L15.3897 22.9163C16.1597 27.0113 14.2697 29.6363 12.6597 30.5813C11.5747 31.2463 10.2097 31.2113 9.82469 30.2663C9.47469 29.4263 10.0697 28.6213 10.8747 28.1663C12.4847 27.4313 14.4447 25.3663 14.7947 22.8813ZM19.0997 10.5613V20.1863C19.0997 20.5013 17.9097 21.0963 16.9297 21.0963H16.4047V12.0313C14.6897 14.8313 12.4497 17.2813 9.64969 19.2763L9.22969 18.7863C12.1347 15.7063 14.2347 11.5413 15.4597 7.34133H9.99969L9.71969 6.32633H16.4047V0.411327L20.3597 0.796326C20.2547 1.28633 19.9747 1.60133 19.0997 1.74133V6.32633H20.7097L22.3897 4.08633C22.3897 4.08633 24.2447 5.66133 25.3997 6.81633C25.2947 7.20133 24.9447 7.34133 24.4897 7.34133H19.0997V9.93133C26.8347 11.8563 24.7697 16.8613 22.2497 15.1113C21.8297 13.6063 20.3947 11.7513 19.0997 10.5613ZM33.6247 25.1913L33.6947 29.1463C34.5697 29.4263 34.8497 29.7413 34.8497 30.2663C34.8497 31.5613 33.5547 32.0163 27.0447 32.0163H22.4597C19.1347 32.0163 18.5047 31.5263 18.5047 29.4263V22.1113L22.2847 22.4963C22.2497 22.9163 21.8997 23.2663 21.2347 23.3713V28.9013C21.2347 29.3913 21.4097 29.4963 22.9147 29.4963H27.2197C29.0747 29.4963 30.5797 29.4963 31.1047 29.4613C31.5947 29.4263 31.7697 29.3213 31.9797 29.0063C32.2597 28.4463 32.6797 27.0113 33.1697 25.1913H33.6247ZM33.4147 22.9863L33.7647 22.7063C44.0897 25.4013 42.1297 32.4363 38.9447 30.3363C38.2797 27.7463 35.6897 24.7013 33.4147 22.9863ZM62.5347 18.1213C62.4297 15.5313 62.6747 12.9413 62.6747 11.1213C62.6747 9.19633 62.2547 8.18133 59.9447 6.46633L60.2247 5.97633C61.0997 6.08133 61.9747 6.18633 62.7447 6.50133C64.1447 7.13133 66.0697 8.81133 66.0697 10.3163C66.0697 11.9263 64.6697 14.0613 64.6697 17.8763C64.6697 21.9013 66.5597 24.0713 67.9597 24.7713C68.4847 25.0163 68.9047 24.9463 69.2197 24.4913C70.3397 22.8463 71.5647 20.3613 72.6147 18.1563L73.4897 18.5413C72.6847 20.9563 71.6347 23.8963 71.4947 25.0163C71.2497 26.7313 71.8097 26.8363 71.8097 27.7113C71.8097 28.8313 70.6547 29.4613 69.0097 28.7963C66.2447 27.6063 62.7447 24.5263 62.5347 18.1213ZM84.4797 14.8313C83.3597 12.6263 81.4697 11.0513 79.0197 10.0713L79.2647 9.30133C82.6947 9.79133 84.4797 11.0163 86.2297 12.7313C88.2597 14.7613 89.2747 18.0863 89.2747 20.5363C89.2747 22.1463 88.7147 22.9163 87.5947 22.9163C86.9647 22.9163 86.4397 22.4963 86.2647 21.6563C85.9847 20.1513 85.8097 17.4563 84.4797 14.8313ZM108.14 8.14633L108.7 7.93633C109.225 8.84633 110.135 9.68633 110.94 9.68633C112.865 9.68633 119.13 7.86633 125.01 6.50133C128.93 5.55633 131.94 4.96133 133.095 4.96133C134.075 4.96133 135.055 5.10133 135.72 5.41633C136.525 5.76633 136.945 6.22133 136.945 6.85133C136.945 7.44633 136.455 7.93633 135.58 7.93633C134.81 7.93633 133.76 7.83133 132.535 7.83133C130.89 7.83133 128.545 8.04133 126.725 9.19633C125.255 10.1063 121.93 13.2563 121.93 19.9413C121.93 23.8263 123.54 25.3313 124.905 26.1363C127.11 27.4313 130.12 27.2213 131.415 27.2213C132.36 27.2213 133.62 27.9913 133.62 28.9713C133.62 30.0213 132.465 30.3713 130.855 30.3713C128.65 30.3713 125.43 30.1613 123.085 28.4813C120.845 26.9063 119.585 24.7013 119.585 20.6063C119.585 16.2313 121.16 11.6813 125.115 8.67133C125.36 8.49633 125.325 8.28633 124.94 8.35633C120.985 9.30133 116.05 10.9813 113.95 12.0313C113.25 12.3813 112.515 13.0113 111.71 13.0113C110.345 13.0113 108.385 11.2613 108.14 9.89633C108.035 9.26633 108.105 8.67133 108.14 8.14633ZM133.06 10.7363L133.445 10.1413C135.265 10.7363 136.735 11.3663 137.61 12.1013C138.52 12.8363 138.87 13.5013 138.87 14.2713C138.87 14.9013 138.555 15.2513 137.96 15.2513C137.365 15.2513 136.98 14.5163 136.28 13.6413C135.51 12.8013 134.705 11.8913 133.06 10.7363ZM129.91 13.0463L130.365 12.4513C132.15 13.1513 133.62 13.9213 134.565 14.7963C135.37 15.5313 135.685 16.1613 135.685 16.8263C135.685 17.4563 135.3 17.8763 134.705 17.8763C134.18 17.8763 133.795 17.1413 133.095 16.2663C132.395 15.3563 131.45 14.2013 129.91 13.0463ZM162.46 0.586327L166.24 2.19633C166.065 2.54633 165.61 2.82633 164.875 2.75633C163.615 4.43633 162.11 6.25633 160.71 7.65633C163.265 9.79133 161.69 12.3813 159.835 11.0513C159.485 9.40633 157.875 7.34133 156.58 6.15133L156.93 5.87133C158.155 6.18633 159.135 6.60633 159.87 7.06133C160.71 5.24133 161.655 2.82633 162.46 0.586327ZM156.895 29.8463L156.335 29.5313C157.42 27.0113 158.4 23.2663 158.855 19.6963L162.495 20.6413C162.355 21.0963 161.97 21.3763 161.235 21.3763C160.255 24.6313 158.715 27.7813 156.895 29.8463ZM165.505 11.9963L165.96 11.7863C172.96 15.3913 170.545 20.6063 168.13 18.4713C168.06 17.6663 167.85 16.7563 167.5 15.8463C166.765 16.0563 165.96 16.2663 165.05 16.5113V31.9813C165.05 32.1913 164.21 32.7513 162.915 32.7513H162.495V17.1413C161.27 17.4563 159.905 17.7713 158.4 18.1213C158.225 18.5413 157.875 18.7863 157.525 18.8213L156.475 15.8113C157.315 15.7763 158.575 15.7063 160.08 15.6013C162.215 12.2763 164.63 7.97133 166.17 4.82133L169.74 6.46633C169.565 6.85133 169.075 7.09633 168.305 6.99133C166.625 9.37133 163.895 12.7663 161.34 15.5313C163.09 15.4263 165.12 15.2513 167.22 15.1113C166.73 13.9563 166.1 12.8713 165.505 11.9963ZM165.995 19.8013L166.415 19.6263C172.89 23.7563 170.23 28.7263 167.955 26.5213C167.92 24.3863 166.87 21.6213 165.995 19.8013ZM174.64 22.4963V30.9663H182.865V22.4963H174.64ZM182.865 4.36633H174.64V12.3813H182.865V4.36633ZM182.865 21.4463V13.3963H174.64V21.4463H182.865ZM185.84 30.9663L187.205 28.9363C187.205 28.9363 188.71 30.4063 189.585 31.4213C189.515 31.7713 189.2 31.9463 188.71 31.9463H168.025L167.745 30.9663H171.98V2.09133L175.095 3.38633H182.48L184.09 1.63633L187.205 4.19133C186.96 4.50633 186.33 4.78633 185.595 4.92633V30.9663H185.84ZM232.075 3.52633L232.495 3.31633C238.9 6.01133 236.485 10.6313 234.245 8.70633C234.175 6.99133 233.09 4.82133 232.075 3.52633ZM210.095 0.516326L213.77 1.77633C213.595 2.12633 213.21 2.44133 212.51 2.40633C211.46 4.08633 210.13 5.80133 208.87 6.99133C211.81 9.30133 210.025 12.1713 208.24 10.7363C208.03 9.05633 206.735 7.02633 205.615 5.80133L206 5.55633C206.875 5.83633 207.61 6.18633 208.205 6.57133C208.87 4.96133 209.605 2.68633 210.095 0.516326ZM213 19.7663L213.455 19.6263C218.845 23.8963 216.325 28.4463 214.33 26.3463C214.435 24.2463 213.665 21.5513 213 19.7663ZM212.825 12.3813L213.245 12.1713C219.195 15.7413 216.745 20.3613 214.645 18.3313C214.645 17.5263 214.47 16.6513 214.19 15.7763L212.405 16.3363V32.0513C212.405 32.2613 211.565 32.8563 210.27 32.8563H209.85V21.1663C209.675 21.2713 209.395 21.3763 209.08 21.3763C208.415 24.4213 207.365 27.6413 205.965 29.8113L205.335 29.5663C206.105 26.9413 206.63 23.2313 206.84 19.8713L209.85 20.5013V17.0713C209.08 17.3163 208.24 17.5263 207.33 17.7713C207.155 18.2263 206.84 18.4713 206.49 18.5063L205.475 15.6013C206.175 15.5663 207.19 15.5313 208.415 15.4263C210.165 12.3463 212.02 8.32133 213.035 5.24133L216.5 6.78133C216.325 7.13133 215.835 7.34133 215.1 7.30633C213.84 9.61633 211.775 12.7663 209.57 15.3563C210.9 15.2513 212.405 15.1463 213.98 15.0413C213.63 14.0613 213.21 13.1163 212.825 12.3813ZM224.34 17.5613H220.28V21.3763H224.34V17.5613ZM220.28 26.5213H224.34V22.3913H220.28V26.5213ZM224.34 27.5363H220.28V29.3913C220.28 29.6363 219.265 30.2313 218.215 30.2313H217.83V15.3563L220.42 16.5113H224.025L225.32 15.1813L227.98 17.2463C227.805 17.4913 227.35 17.7013 226.86 17.7713V28.2713C226.825 28.5513 225.6 29.2163 224.725 29.2163H224.34V27.5363ZM237.71 24.2813L237.185 29.6713C238.025 31.1413 238.13 31.8063 237.745 32.2263C236.8 33.3813 234.84 32.2613 233.755 31.0363C232.67 29.8813 231.795 28.4813 231.13 26.8713C229.03 29.2163 226.37 31.2813 223.045 32.6813L222.765 32.1913C225.985 30.3013 228.47 27.6763 230.36 24.7363C229.45 21.6913 228.96 18.0513 228.715 13.9213H215.835L215.555 12.9063H222.87C223.36 11.0863 223.78 8.60133 224.025 6.78133L227.77 7.86633C227.63 8.25133 227.21 8.56633 226.51 8.53133C225.81 9.82633 224.795 11.5063 223.675 12.9063H228.68C228.575 10.7713 228.505 8.53133 228.505 6.18633C228.33 6.36133 228.085 6.46633 227.735 6.46633H216.43L216.15 5.45133H220.595V0.831326L224.41 1.18133C224.34 1.63633 224.06 1.95133 223.29 2.09133V5.45133H224.62L226.055 3.56133C226.055 3.56133 227.525 4.82133 228.47 5.76633C228.47 4.08633 228.47 2.33633 228.47 0.551327L232.495 1.04133C232.425 1.49633 232.11 1.88133 231.235 2.05633C231.165 5.87133 231.13 9.54633 231.235 12.9063H233.475L235.12 10.7713C235.12 10.7713 237.01 12.2413 238.13 13.3613C238.025 13.7463 237.71 13.9213 237.255 13.9213H231.27C231.41 16.7213 231.655 19.2763 232.11 21.5163C232.95 19.6613 233.58 17.7713 234 15.9163L237.71 17.0713C237.535 17.4563 237.29 17.6663 236.38 17.6663C235.575 19.9763 234.455 22.3213 232.915 24.5613C233.475 26.1013 234.175 27.3963 235.085 28.3763C235.505 28.9013 235.645 28.8313 235.925 28.1663C236.31 27.3263 236.905 25.6463 237.29 24.2113L237.71 24.2813ZM217.69 7.02633L218.145 6.85133C223.36 9.96633 220.77 13.9913 218.915 12.0313C218.95 10.4213 218.32 8.32133 217.69 7.02633ZM279.01 11.1213L279.395 10.5263C280.795 10.7013 281.565 10.9463 282.265 11.4013C283.245 12.0313 284.365 13.3613 284.365 14.4113C284.365 15.1813 283.84 15.2513 282.37 15.6713C279.745 16.4413 275.79 17.8763 272.71 19.3813C272.85 21.3763 272.885 23.7213 272.885 24.9113C272.885 25.8563 272.43 26.4863 271.59 26.4863C270.855 26.4863 270.155 26.0663 270.155 24.9813C270.155 24.1063 270.295 22.3913 270.33 20.6063C267.11 22.4963 264.66 24.6313 264.66 26.6263C264.66 28.4113 266.655 29.3213 270.015 29.3213C275.195 29.3213 277.225 28.2013 278.8 28.2013C280.2 28.2013 281.075 28.6213 281.075 29.5313C281.075 30.1963 280.83 30.6513 279.64 31.0013C278.38 31.3863 274.775 31.9463 271.8 31.9463C265.22 31.9463 263.05 29.8113 263.05 26.9763C263.05 24.1063 266.41 21.2363 270.33 18.7513C270.225 15.8463 269.665 14.7613 267.88 14.7613C265.99 14.7613 263.68 16.8613 262.28 18.4363C261.055 19.8013 260.04 21.6213 259.06 21.6563C258.22 21.6913 257.73 20.9913 257.73 19.9763C257.695 18.9263 258.955 18.1213 260.495 16.5463C262.385 14.6563 264.03 12.3463 265.29 10.1763C264.415 10.2813 263.54 10.3513 262.7 10.3513C259.865 10.3513 259.235 9.30133 257.975 6.53633L258.64 6.15133C259.97 7.48133 260.775 8.28633 263.295 8.25133C264.275 8.25133 265.395 8.11133 266.515 7.90133C267.04 6.78133 267.39 5.76633 267.565 4.99633C267.74 4.40133 267.67 4.08633 267.005 3.77133C266.55 3.52633 265.815 3.31633 264.975 3.14133L265.01 2.54633C265.71 2.30133 266.55 2.05633 267.145 2.09133C268.335 2.09133 270.785 2.65133 270.785 3.59633C270.785 4.08633 270.505 4.36633 270.155 5.10133C269.875 5.66133 269.455 6.50133 269.035 7.30633C270.68 6.85133 272.185 6.32633 273.165 5.90633C274.565 5.31133 274.81 4.96133 275.335 4.96133C276.245 4.96133 277.085 5.24133 277.085 6.08133C277.085 6.57133 276.77 6.92133 276.035 7.30633C274.67 7.97133 271.275 9.16133 267.67 9.82633C266.935 11.1213 265.99 12.6613 264.52 14.5513C264.38 14.7613 264.485 14.9363 264.73 14.7963C265.885 14.1663 267.18 13.5363 268.58 13.5363C270.75 13.5363 272.115 15.0063 272.5 17.4913C275.23 16.0213 278.59 14.6213 280.55 13.5713C281.145 13.2213 281.215 12.8713 280.725 12.3463C280.375 11.8913 279.675 11.4363 279.01 11.1213ZM327.765 4.22633L328.115 3.94633C337.32 6.29133 335.535 12.7663 332.63 10.8413C332.42 9.93133 331.965 8.95133 331.335 8.00633C328.08 8.60133 323.705 9.26633 317.86 10.1063C317.65 10.5263 317.3 10.7363 316.915 10.7713L315.655 7.51633C316.775 7.51633 318.42 7.51633 320.38 7.48133C321.185 5.31133 321.92 2.65133 322.375 0.586327L326.68 1.67133C326.54 2.09133 326.155 2.40633 325.385 2.37133C324.51 3.84133 323.075 5.80133 321.64 7.44633C324.3 7.41133 327.485 7.34133 330.775 7.23633C329.9 6.08133 328.815 5.03133 327.765 4.22633ZM312.89 15.7413L315.725 18.0863C315.48 18.3663 315.025 18.5413 314.325 18.6113C313.94 25.9963 313.03 30.2313 311.455 31.5963C310.51 32.4013 309.215 32.7863 307.675 32.7863C307.675 32.0163 307.57 31.3513 307.115 30.9313C306.625 30.5463 305.365 30.1963 304.105 29.9513V29.3913C305.47 29.4963 307.71 29.7063 308.445 29.7063C309.075 29.7063 309.355 29.6363 309.705 29.3563C310.685 28.4813 311.385 24.5963 311.735 18.2613H306.94C306.87 18.9263 306.8 19.5563 306.73 20.1163C306.065 20.5013 305.435 20.5713 304.07 20.3613C304.56 16.7563 305.085 11.6463 305.295 8.88133L308.165 9.96633H311.49V3.63133H304.14L303.86 2.61633H311.14L312.54 1.07633L315.585 3.42133C315.34 3.70133 314.815 3.94633 314.115 4.08633V11.8213C314.08 12.0313 312.75 12.5913 311.91 12.5913H311.49V10.9463H307.605C307.5 12.6263 307.29 15.0763 307.045 17.2813H311.385L312.89 15.7413ZM319.4 20.7113H323.74V14.9363H319.4V20.7113ZM330.915 14.9363H326.33V20.7113H330.915V14.9363ZM329.095 24.1763L329.48 23.9313C338.3 28.3413 336.025 34.4663 333.225 32.1913C333.05 31.1063 332.56 29.9163 331.965 28.7263C328.325 29.5313 323.495 30.4763 317.02 31.6663C316.81 32.1213 316.46 32.3663 316.11 32.4363L314.5 29.0763C316.46 29.0413 319.75 28.8313 323.74 28.5163V21.7263H319.4V23.2663C319.4 23.5113 318.315 24.0713 317.265 24.0713H316.915V12.7663L319.575 13.9563H323.74V9.93133L327.38 10.3163C327.31 10.7713 327.065 11.0163 326.33 11.1213V13.9563H330.6L331.895 12.5213L334.8 14.6913C334.59 14.9013 334.1 15.1813 333.47 15.3213V22.6363C333.435 22.8813 332.14 23.4413 331.335 23.4413H330.915V21.7263H326.33V28.3413L331.58 27.9213C330.81 26.5563 329.9 25.2263 329.095 24.1763ZM370.605 4.82133C370.605 4.19133 370.045 3.45633 368.715 2.47633L369.135 1.88133C370.01 2.02133 370.78 2.19633 371.48 2.58133C372.95 3.35133 374.35 4.96133 374.35 5.94133C374.35 6.78133 373.615 7.06133 372.32 8.00633C369.905 9.86133 365.425 13.8513 363.955 15.3213C362.975 16.3363 362.73 16.7213 362.73 17.1413C362.73 17.6313 363.15 18.0513 363.92 18.6463C367.455 21.3763 370.745 23.6513 373.195 26.7663C374.245 28.0963 374.91 29.3913 374.91 30.4763C374.91 31.4563 374.42 32.2263 373.265 32.2263C372.6 32.2263 372.075 31.8063 371.795 31.2813C371.41 30.5463 371.06 29.7063 370.08 28.2363C368.54 25.8213 365.95 23.2663 361.75 19.6963C360.84 18.9263 360.42 18.1563 360.42 17.4213C360.42 16.7913 360.735 16.1263 361.365 15.4613C363.15 13.3263 368.26 8.25133 369.8 6.32633C370.395 5.62633 370.605 5.27633 370.605 4.82133ZM417.435 22.2513C419.15 22.2513 419.955 21.3763 419.955 19.1013C419.955 16.9663 418.975 15.7413 417.47 15.7413C415.755 15.7413 414.635 17.2463 414.635 19.0313C414.635 20.9213 415.825 22.2513 417.435 22.2513ZM415.58 4.05133L415.51 3.38633C416.21 3.00133 417.155 2.51133 418.135 2.51133C419.71 2.51133 421.985 3.31633 421.985 4.26133C421.985 5.13633 421.425 5.69633 421.39 6.60633C421.355 7.02633 421.32 7.65633 421.32 8.42633C427.305 7.79633 429.055 7.44633 429.755 7.44633C431.155 7.44633 433.115 8.18133 433.115 9.47633C433.115 10.2463 432.695 10.4913 431.925 10.4913C430.665 10.4913 428.11 9.61633 421.285 10.2113C421.25 11.8913 421.25 13.8163 421.285 15.5663C422.3 16.6513 422.755 18.3313 422.755 20.3263C422.755 26.9763 417.61 30.8613 410.61 32.3663L410.19 31.5613C414.46 29.9863 417.96 27.5713 419.29 24.1763C415.825 25.6113 413.06 22.8113 413.06 19.2763C413.06 16.5813 414.915 14.2013 417.785 14.2013C418.31 14.2013 418.8 14.2713 419.22 14.3763C419.185 13.3613 419.15 11.9263 419.045 10.4213C415.545 10.8063 412.08 11.5763 410.085 12.1013C408.475 12.5213 407.81 13.1163 406.795 13.1163C405.535 13.1163 403.82 11.4713 403.435 10.3863C403.19 9.75633 403.12 8.88133 403.12 8.18133L403.75 7.93633C404.66 9.16133 405.29 10.1413 406.48 10.1413C407.845 10.1763 414.88 9.19633 418.975 8.70633C418.905 7.44633 418.8 6.29133 418.73 5.45133C418.66 4.78633 418.485 4.57633 417.925 4.40133C417.4 4.22633 416.595 4.12133 415.58 4.05133ZM466.47 28.8663C466.995 28.8663 467.485 28.8313 467.975 28.7963C467.52 26.2063 465.91 24.7713 463.95 24.7713C462.655 24.7713 461.745 25.4713 461.745 26.5913C461.745 27.8513 463.285 28.8663 466.47 28.8663ZM458.805 4.05133L459.4 3.98133C459.89 5.03133 460.485 6.08133 461.395 6.08133C462.725 6.08133 466.96 5.03133 468.605 4.50633C469.55 4.22633 469.62 3.80633 470.18 3.80633C471.405 3.80633 473.575 5.48633 473.575 6.60633C473.575 7.34133 472.63 7.44633 471.44 8.46133C469.515 9.93133 464.965 14.2363 463.425 15.8463C463.145 16.1263 463.32 16.4063 463.635 16.2663C465.105 15.7413 467.135 15.0763 469.62 15.0763C474.205 15.0763 478.09 18.0513 478.02 23.0213C477.95 27.4663 473.96 31.1413 467.17 31.1413C463.215 31.1413 460.415 29.4963 460.415 26.8363C460.415 24.8413 462.2 23.3713 464.58 23.3713C467.03 23.3713 469.76 24.9113 470.39 28.3413C473.75 27.2913 475.325 24.8763 475.36 22.2513C475.465 19.1713 473.19 16.3363 468.955 16.3363C463.985 16.3363 460.52 19.5563 457.58 23.3713C456.95 24.1413 456.635 24.3863 456.04 24.3513C455.48 24.3513 454.885 23.6863 454.955 22.7063C454.99 21.9713 455.375 21.4113 456.285 20.5013C461.185 15.4613 467.8 9.16133 469.375 6.78133C469.76 6.22133 469.515 6.01133 469.06 6.11633C467.905 6.32633 465.105 7.44633 463.67 8.11133C463.005 8.42633 462.48 8.95133 461.85 8.95133C460.31 8.95133 458.945 7.20133 458.735 6.11633C458.595 5.48633 458.665 4.78633 458.805 4.05133ZM504.585 32.8563C501.855 32.8563 499.65 30.6513 499.65 27.9213C499.65 25.1913 501.855 23.0213 504.585 23.0213C507.315 23.0213 509.485 25.1913 509.485 27.9213C509.485 30.6513 507.315 32.8563 504.585 32.8563ZM504.585 24.2113C502.52 24.2113 500.84 25.8913 500.84 27.9213C500.84 29.9513 502.52 31.6663 504.585 31.6663C506.615 31.6663 508.295 29.9513 508.295 27.9213C508.295 25.8913 506.615 24.2113 504.585 24.2113Z" fill="white"/>
<path d="M105.126 321.671C104.87 321.671 104.597 321.671 104.324 321.654L102.312 321.551L99.6505 318.276L100.06 316.144C100.213 315.325 101.595 307.257 96.8019 300.349C93.1857 295.129 86.8232 291.735 77.885 290.233C47.2666 284.519 17.2452 292.059 8.76761 294.498C6.68658 295.112 4.48615 294.703 2.74627 293.389C1.0064 292.076 0 290.063 0 287.88V150.293C0 146.489 2.4563 143.214 6.10662 142.156C20.5544 137.96 70.3285 126.208 111.062 148.707C151.83 126.208 201.553 137.96 215.983 142.156C219.583 143.214 222.09 146.557 222.09 150.293V287.368C222.09 289.534 221.067 291.598 219.327 292.877C217.587 294.174 215.369 294.566 213.271 293.952C204.828 291.445 174.909 283.735 144.376 289.466C135.642 291.547 130.047 295.709 127.25 302.225C121.928 314.626 113.894 321.671 105.092 321.671H105.126ZM53.9362 279.248C62.0726 279.248 70.6867 279.88 79.4202 281.517C90.7124 283.41 99.0194 288.05 104.051 295.3C108.043 301.048 109.083 307.223 109.169 311.726C114.405 308.895 117.987 301.44 119.13 298.745C123.071 289.585 130.9 283.564 142.448 280.835L142.636 280.784C172.128 275.24 200.29 281.159 213.22 284.741V150.549C199.096 146.472 151.506 135.402 113.74 157.321C112.086 158.293 110.005 158.293 108.316 157.321C70.5844 135.402 22.9766 146.489 8.83584 150.566V285.304C17.9446 282.848 34.5928 279.265 53.9191 279.265L53.9362 279.248ZM109.339 149.679C109.339 149.679 109.322 149.679 109.305 149.696C109.305 149.696 109.322 149.696 109.339 149.679Z" fill="white"/>
<path d="M293.51 291.19C296.069 290.32 297.809 288.051 297.809 285.254C297.809 280.546 294.278 278.175 287.386 278.175H279.182C278.499 278.175 277.937 278.738 277.937 279.42V304.256C277.937 304.938 278.499 305.501 279.182 305.501H288.325C295.932 305.501 298.747 301.783 298.747 297.655C298.747 294.209 296.836 292.077 293.51 291.207V291.19ZM282.883 282.115H287.062C291.736 282.115 292.896 283.377 292.896 285.527C292.896 287.778 291.361 289.33 287.711 289.33H282.9V282.115H282.883ZM288.035 301.527H282.883V293.288H287.438C291.77 293.288 293.817 294.516 293.817 297.399C293.817 300.009 291.992 301.51 288.035 301.51V301.527Z" fill="white"/>
<path d="M318.84 293.646C322.235 292.503 324.145 290.081 324.145 286.328C324.145 280.904 320.103 278.175 313.348 278.175H304.597C303.915 278.175 303.352 278.738 303.352 279.42V304.256C303.352 304.938 303.915 305.501 304.597 305.501H307.054C307.736 305.501 308.299 304.938 308.299 304.256V294.414H313.996L319.318 304.819C319.523 305.228 319.949 305.501 320.427 305.501H323.753C324.367 305.501 324.759 304.853 324.469 304.307L318.857 293.663L318.84 293.646ZM313.007 290.439H308.282V282.166H313.007C317.186 282.166 319.216 283.241 319.216 286.328C319.216 289.416 317.169 290.439 313.007 290.439Z" fill="white"/>
<path d="M343.097 278.96C342.909 278.482 342.449 278.158 341.937 278.158H338.969C338.457 278.158 337.979 278.482 337.809 278.96L328.308 304.376C328.103 304.905 328.495 305.485 329.075 305.485H332.504C332.913 305.485 333.272 305.229 333.408 304.853L335.182 299.821H345.775L347.549 304.853C347.685 305.229 348.043 305.485 348.453 305.485H351.83C352.393 305.485 352.803 304.922 352.598 304.376L343.097 278.96ZM336.547 295.864L340.453 284.811L344.359 295.864H336.53H336.547Z" fill="white"/>
<path d="M376.871 278.158H374.585C373.903 278.158 373.34 278.721 373.34 279.403V296.973L361.621 278.738C361.399 278.38 361.007 278.175 360.581 278.175H358.244C357.561 278.175 356.999 278.738 356.999 279.42V304.256C356.999 304.939 357.561 305.502 358.244 305.502H360.529C361.212 305.502 361.775 304.939 361.775 304.256V286.926L373.357 304.922C373.579 305.28 373.971 305.485 374.397 305.485H376.854C377.536 305.485 378.099 304.922 378.099 304.239V279.403C378.099 278.721 377.536 278.158 376.854 278.158H376.871Z" fill="white"/>
<path d="M394.27 278.158H385.605C384.922 278.158 384.359 278.721 384.359 279.403V304.239C384.359 304.922 384.922 305.485 385.605 305.485H394.27C400.871 305.485 405.289 302.192 405.289 293.442V290.201C405.289 281.45 400.871 278.158 394.27 278.158ZM400.359 293.442C400.359 299.071 398.483 301.527 394.27 301.527H389.289V282.167H394.27C398.483 282.167 400.359 284.572 400.359 290.201V293.442Z" fill="white"/>
<path d="M441.246 291.19C443.805 290.32 445.544 288.051 445.544 285.254C445.544 280.546 442.014 278.175 435.122 278.175H426.918C426.235 278.175 425.672 278.738 425.672 279.42V304.256C425.672 304.938 426.235 305.501 426.918 305.501H436.06C443.668 305.501 446.483 301.783 446.483 297.655C446.483 294.209 444.572 292.077 441.246 291.207V291.19ZM430.619 282.115H434.781C439.455 282.115 440.615 283.377 440.615 285.527C440.615 287.778 439.08 289.33 435.429 289.33H430.619V282.115ZM435.77 301.527H430.619V293.288H435.173C439.506 293.288 441.553 294.516 441.553 297.399C441.553 300.009 439.728 301.51 435.77 301.51V301.527Z" fill="white"/>
<path d="M461.716 277.798C455.165 277.798 450.748 281.482 450.748 290.079V293.559C450.748 302.156 455.165 305.841 461.716 305.841C468.266 305.841 472.735 302.156 472.735 293.559V290.079C472.735 281.482 468.317 277.798 461.716 277.798ZM467.805 293.559C467.805 299.461 465.639 301.832 461.716 301.832C457.792 301.832 455.677 299.461 455.677 293.559V290.079C455.677 284.177 457.809 281.806 461.716 281.806C465.622 281.806 467.805 284.177 467.805 290.079V293.559Z" fill="white"/>
<path d="M488.445 277.798C481.894 277.798 477.477 281.482 477.477 290.079V293.559C477.477 302.156 481.894 305.841 488.445 305.841C494.995 305.841 499.464 302.156 499.464 293.559V290.079C499.464 281.482 495.046 277.798 488.445 277.798ZM494.534 293.559C494.534 299.461 492.368 301.832 488.445 301.832C484.521 301.832 482.406 299.461 482.406 293.559V290.079C482.406 284.177 484.538 281.806 488.445 281.806C492.351 281.806 494.534 284.177 494.534 290.079V293.559Z" fill="white"/>
<path d="M527.78 304.205L517.477 289.177L525.613 279.522C526.057 278.994 525.682 278.175 524.982 278.175H521.281C520.905 278.175 520.564 278.345 520.325 278.635L509.886 291.36V279.42C509.886 278.738 509.323 278.175 508.641 278.175H506.185C505.502 278.175 504.939 278.738 504.939 279.42V304.256C504.939 304.938 505.502 305.501 506.185 305.501H508.641C509.323 305.501 509.886 304.938 509.886 304.256V298.217L514.219 293.032L522.355 304.972C522.594 305.313 522.969 305.518 523.379 305.518H527.08C527.745 305.518 528.121 304.785 527.763 304.239L527.78 304.205Z" fill="white"/>
<path d="M289.792 211.734H279.233C278.551 211.734 277.988 212.297 277.988 212.979V245.133C277.988 245.815 278.551 246.378 279.233 246.378H282.577C283.259 246.378 283.822 245.815 283.822 245.133V233.721H289.792C297.826 233.721 302.551 229.696 302.551 222.668C302.551 215.64 297.775 211.717 289.792 211.717V211.734ZM289.195 228.706H283.822V216.8H289.195C294.517 216.8 296.735 218.915 296.735 222.668C296.735 226.625 294.534 228.689 289.195 228.689V228.706Z" fill="white"/>
<path d="M329.553 216.819C330.236 216.819 330.799 216.257 330.799 215.574V212.982C330.799 212.299 330.236 211.736 329.553 211.736H310.79C310.108 211.736 309.545 212.299 309.545 212.982V245.152C309.545 245.834 310.108 246.397 310.79 246.397H329.553C330.236 246.397 330.799 245.834 330.799 245.152V242.611C330.799 241.928 330.236 241.365 329.553 241.365H315.379V230.977H328.052C328.735 230.977 329.298 230.414 329.298 229.732V227.191C329.298 226.508 328.735 225.945 328.052 225.945H315.379V216.802H329.553V216.819Z" fill="white"/>
<path d="M341.05 211.736C340.368 211.736 339.805 212.299 339.805 212.982V245.135C339.805 245.817 340.368 246.38 341.05 246.38H344.393C345.075 246.38 345.638 245.817 345.638 245.135V232.325H352.359L358.722 245.715C358.909 246.124 359.319 246.38 359.779 246.38H364.231C364.811 246.38 365.169 245.783 364.931 245.272L358.09 231.37C362.099 229.92 364.368 226.849 364.368 222.073C364.368 215.199 359.592 211.736 351.609 211.736H341.05ZM358.534 222.09C358.534 225.996 356.129 227.31 351.199 227.31H345.621V216.819H351.199C356.112 216.819 358.534 218.167 358.534 222.09Z" fill="white"/>
<path d="M384.785 241.756C381.34 241.756 379.327 240.767 377.502 238.891C377.007 238.379 376.222 238.311 375.642 238.72L373.442 240.238C372.708 240.75 372.606 241.79 373.203 242.439C376.001 245.407 379.856 246.822 385.075 246.822C393.416 246.822 396.879 242.046 396.879 236.878C396.879 230.652 393.263 228.042 386.286 226.541C381.476 225.483 378.849 224.187 378.849 220.861C378.849 217.944 380.964 216.341 384.529 216.341C387.839 216.341 389.664 217.347 391.199 219.07C391.694 219.633 392.529 219.735 393.143 219.309L395.242 217.807C395.924 217.313 396.06 216.323 395.515 215.675C393.041 212.724 389.459 211.274 384.598 211.274C376.461 211.274 373.05 215.641 373.05 220.861C373.05 226.729 376.819 229.952 383.489 231.351C389.51 232.648 391.062 234.37 391.062 237.117C391.062 239.624 389.561 241.739 384.785 241.739V241.756Z" fill="white"/>
<path d="M429.801 231.264V226.847C429.801 215.947 424.581 211.29 416.803 211.29C409.024 211.29 403.839 215.964 403.839 226.847V231.264C403.839 242.164 409.059 246.838 416.803 246.838C424.547 246.838 429.801 242.164 429.801 231.264ZM423.967 231.264C423.967 238.753 421.408 241.755 416.786 241.755C412.163 241.755 409.656 238.736 409.656 231.264V226.847C409.656 219.375 412.163 216.356 416.786 216.356C421.408 216.356 423.967 219.375 423.967 226.847V231.264Z" fill="white"/>
<path d="M439.762 246.378H442.901C443.583 246.378 444.146 245.815 444.146 245.133V222.821L457.895 245.764C458.116 246.139 458.526 246.361 458.952 246.361H462.176C462.858 246.361 463.421 245.798 463.421 245.116V212.962C463.421 212.28 462.858 211.717 462.176 211.717H459.037C458.355 211.717 457.792 212.28 457.792 212.962V235.563L443.89 212.314C443.669 211.939 443.259 211.717 442.833 211.717H439.762C439.08 211.717 438.517 212.28 438.517 212.962V245.116C438.517 245.798 439.08 246.361 439.762 246.361V246.378Z" fill="white"/>
<path d="M490.918 239.199L492.982 245.459C493.17 246.005 493.665 246.38 494.244 246.38H498.185C498.799 246.38 499.242 245.766 499.038 245.186L487.694 212.572C487.524 212.077 487.046 211.736 486.517 211.736H482.765C482.236 211.736 481.758 212.077 481.588 212.572L470.244 245.186C470.04 245.766 470.483 246.38 471.097 246.38H475.089C475.669 246.38 476.18 246.005 476.351 245.459L478.415 239.199H490.918ZM484.641 220.18L489.264 234.184H480.018L484.641 220.18Z" fill="white"/>
<path d="M507.14 246.378H525.904C526.586 246.378 527.149 245.815 527.149 245.133V242.591C527.149 241.909 526.586 241.346 525.904 241.346H511.729V212.962C511.729 212.28 511.166 211.717 510.484 211.717H507.14C506.458 211.717 505.895 212.28 505.895 212.962V245.116C505.895 245.798 506.458 246.361 507.14 246.361V246.378Z" fill="white"/>
<path d="M302.175 153.379C303.557 154.693 304.256 156.399 304.256 158.463C304.256 160.168 303.762 161.738 302.806 163.085C301.834 164.45 300.452 165.593 298.695 166.463C296.921 167.35 294.84 168.049 292.521 168.578C290.201 169.089 287.591 169.431 284.776 169.567C284.316 169.567 283.958 169.772 283.719 170.147C283.48 170.539 283.446 170.932 283.616 171.324L284.964 174.36C285.152 174.838 285.476 175.23 285.919 175.503C286.277 175.725 286.687 175.844 287.13 175.844H287.318C294.653 175.264 300.486 173.439 304.666 170.42C308.879 167.384 311.011 163.392 311.011 158.565C311.011 155.887 310.363 153.533 309.066 151.554C307.77 149.576 306.03 148.057 303.864 147.085C301.715 146.113 299.258 145.618 296.546 145.618C295.335 145.618 293.987 145.721 292.538 145.925C291.139 146.113 289.604 146.42 287.983 146.812C286.329 147.222 285.032 147.563 284.043 147.836C283.105 148.109 281.894 148.467 280.239 148.996C278.738 149.473 274.132 150.974 273.365 151.281C272.614 151.588 272.444 152.066 272.751 152.885C272.921 153.345 274.098 156.228 274.098 156.228C274.269 156.689 274.576 157.03 275.036 157.217C275.497 157.405 275.941 157.388 276.367 157.183C285.186 153.362 291.889 151.435 296.324 151.435C298.832 151.435 300.793 152.1 302.175 153.413V153.379Z" fill="white"/>
<path d="M325.203 156.146C323.651 157.92 322.866 160.154 322.866 162.815C322.866 165.476 323.531 167.54 324.845 168.905C326.158 170.269 327.762 170.952 329.604 170.952H330.065V171.634C330.065 172.402 330.099 173.016 330.167 173.51C330.252 174.022 330.491 174.602 330.9 175.267C331.327 175.932 331.907 176.461 332.674 176.819C333.408 177.178 334.499 177.485 335.898 177.758C337.297 178.013 339.003 178.15 340.981 178.15C342.653 178.15 344.444 178.065 346.32 177.911C348.214 177.758 349.664 177.519 350.602 177.229C353.041 176.461 354.747 175.438 355.668 174.193C356.589 172.947 357.118 171.207 357.271 169.007C357.323 168.308 357.357 167.387 357.357 166.158V165.357C357.323 164.845 357.169 164.401 356.879 163.992C356.589 163.6 356.18 163.31 355.668 163.139L352.546 162.184C352.12 162.048 351.728 162.116 351.404 162.406C351.062 162.679 350.926 163.054 350.943 163.515C351.028 164.606 351.08 165.903 351.08 167.37C351.08 168.512 350.841 169.433 350.363 170.099C349.885 170.781 349.118 171.293 348.077 171.617C346.252 172.129 344.001 172.384 341.374 172.384C339.719 172.384 338.457 172.265 337.638 172.043C336.649 171.77 335.898 170.013 335.966 169.024C336.359 163.515 336.819 159.984 336.973 157.05C337.126 153.843 336.973 150.619 336.973 150.619C339.173 150.38 341.237 150.073 343.114 149.698C343.608 149.595 344.018 149.357 344.342 148.964C344.666 148.572 344.819 148.111 344.819 147.6V145.348C344.819 144.905 344.632 144.529 344.256 144.239C343.881 143.949 343.455 143.864 343.028 143.966C341.152 144.41 339.139 144.802 336.973 145.126C337.007 143.745 337.075 142.5 337.195 141.425C337.229 140.964 337.092 140.555 336.785 140.197C336.478 139.839 336.086 139.668 335.608 139.668H332.521C332.043 139.668 331.668 139.856 331.361 140.214C331.088 140.572 330.952 140.964 330.986 141.408C331.122 142.363 331.207 143.728 331.207 145.45V145.57H330.133C328.632 145.57 326.755 145.416 324.555 145.143C324.128 145.109 323.719 145.246 323.378 145.553C323.02 145.86 322.849 146.252 322.883 146.747L323.02 148.879C323.054 149.357 323.241 149.783 323.583 150.158C323.924 150.517 324.35 150.721 324.845 150.755C327.079 150.96 329.007 151.062 330.559 151.062H331.242V153.519C328.819 153.519 326.789 154.423 325.237 156.197L325.203 156.146ZM332.197 158.96C332.538 159.421 332.708 160.035 332.708 160.819C332.708 162.133 332.487 163.207 332.043 164.026C331.617 164.811 331.003 165.186 330.167 165.186C329.57 165.186 329.058 164.947 328.632 164.453C328.188 163.958 327.966 163.293 327.966 162.406C327.966 161.195 328.256 160.188 328.836 159.421C329.399 158.67 330.065 158.295 330.866 158.295C331.429 158.295 331.873 158.5 332.197 158.943V158.96Z" fill="white"/>
<path d="M356.095 155.428C356.419 155.752 356.828 155.94 357.306 155.974H357.391C357.835 155.974 358.21 155.803 358.517 155.479L360.376 153.62C360.735 153.262 360.922 152.818 360.922 152.289C360.922 151.829 360.752 151.42 360.428 151.044C358.057 148.537 355.686 146.37 353.366 144.631C353.008 144.375 352.615 144.238 352.189 144.238H351.984C351.506 144.307 351.063 144.511 350.688 144.869L349.17 146.388C348.863 146.695 348.709 147.053 348.709 147.462C348.709 147.991 348.914 148.434 349.306 148.776C351.592 150.652 353.86 152.886 356.112 155.445L356.095 155.428Z" fill="white"/>
<path d="M373.016 163.46C380.163 169.567 384.581 173.507 386.15 175.162C386.406 175.452 386.867 175.929 387.498 176.578C388.129 177.226 388.607 177.721 388.931 178.062C389.255 178.42 389.681 178.625 390.193 178.659H390.278C390.705 178.659 391.097 178.505 391.438 178.198L394.253 175.554C394.628 175.23 394.799 174.821 394.799 174.343C394.799 173.865 394.628 173.473 394.287 173.132C392.922 171.887 391.268 170.437 389.323 168.799C387.532 167.281 385.519 165.61 383.182 163.665L382.074 162.744C380.572 161.516 379.634 160.731 379.259 160.424C378.44 159.725 377.929 159.179 377.724 158.787C377.536 158.445 377.536 158.138 377.707 157.814C377.894 157.456 378.389 156.91 379.208 156.211C380.351 155.239 382.5 153.499 385.758 150.872C389.204 148.108 390.654 146.949 390.739 146.897C390.995 146.727 391.404 146.42 392.052 145.908C392.649 145.43 393.11 145.072 393.434 144.85C393.809 144.578 394.014 144.185 394.031 143.725C394.048 143.247 393.877 142.855 393.536 142.548L390.636 140.04C390.329 139.767 389.971 139.631 389.579 139.631H389.391C388.931 139.665 388.521 139.87 388.197 140.228C387.668 140.859 386.867 141.678 385.826 142.684C383.643 144.799 379.464 148.381 373.374 153.311C371.856 154.573 370.816 155.716 370.287 156.723C369.98 157.303 369.826 157.917 369.826 158.531C369.826 158.991 369.911 159.469 370.099 159.964C370.543 161.038 371.532 162.198 373.033 163.443L373.016 163.46Z" fill="white"/>
<path d="M394.15 150.771C394.696 151.675 395.463 152.989 396.401 154.711C396.623 155.138 396.981 155.445 397.459 155.598C397.698 155.684 397.92 155.718 398.141 155.718C398.363 155.718 398.602 155.667 398.824 155.581L399.591 155.24C400.035 155.07 400.342 154.746 400.495 154.285C400.563 154.114 400.598 153.927 400.598 153.722C400.598 153.483 400.529 153.245 400.393 152.955C399.472 151.283 398.721 149.969 398.175 149.031C397.92 148.605 397.544 148.332 397.05 148.178C396.572 148.042 396.094 148.059 395.651 148.247L394.815 148.554C394.389 148.724 394.116 149.048 393.979 149.509C393.843 149.952 393.894 150.379 394.133 150.754L394.15 150.771Z" fill="white"/>
<path d="M390.978 156.88C391.183 157.307 391.524 157.614 392.001 157.784C392.24 157.87 392.462 157.904 392.684 157.904C392.905 157.904 393.127 157.853 393.349 157.784L394.185 157.426C394.611 157.221 394.918 156.897 395.089 156.454C395.259 155.993 395.225 155.55 394.986 155.123C394.099 153.435 393.383 152.155 392.803 151.2C392.547 150.774 392.172 150.484 391.677 150.33C391.2 150.177 390.722 150.177 390.244 150.381L389.562 150.688C389.119 150.859 388.812 151.166 388.675 151.609C388.522 152.053 388.556 152.479 388.794 152.889C389.357 153.81 390.074 155.157 390.961 156.914L390.978 156.88Z" fill="white"/>
</svg>
